<?xml version="1.0" encoding="utf-8"?>
<!-- Generator: Adobe Illustrator 17.0.0, SVG Export Plug-In . SVG Version: 6.00 Build 0)  -->
<!DOCTYPE svg PUBLIC "-//W3C//DTD SVG 1.0//EN" "http://www.w3.org/TR/2001/REC-SVG-20010904/DTD/svg10.dtd">
<svg version="1.0" xmlns="http://www.w3.org/2000/svg" xmlns:xlink="http://www.w3.org/1999/xlink" x="0px" y="0px" width="2000px"
	 height="2000px" viewBox="0 0 2000 2000" enable-background="new 0 0 2000 2000" xml:space="preserve">
<g id="Capa_1" display="none">
	<g display="inline">
		<path d="M418.956,1207.854h-14.986l-204.048-516.11h14.986l112.976,286.309l6.34,15.069l77.238,195.268l196.555-545.685
			L418.956,1207.854z"/>
	</g>
	<polyline display="inline" points="615,642.704 655,763 664,763 620,642.704 	"/>
</g>
<g id="montaña">
	<g>
		<path d="M568.972,546.858l-255.912,725.364h-14.732L69.278,665.979h13.563l222.27,587.52l253.536-706.916L568.972,546.858z"/>
	</g>
	<g>
		<path d="M568.51,548.067c7.145,14.441,14.499,28.838,21.949,43.157c7.458,14.321,15.043,28.576,22.787,42.74
			c7.746,14.162,15.649,28.234,23.799,42.15c8.157,13.909,16.544,27.682,25.438,41.074c4.454,6.688,9.035,13.285,13.869,19.646
			c4.844,6.324,9.906,12.56,15.6,17.765c1.425,1.283,2.897,2.481,4.401,3.501c1.496,1.002,3.07,1.824,4.442,2.144
			c0.339,0.076,0.655,0.118,0.95,0.138c0.137-0.01,0.284,0.005,0.414-0.006l0.188-0.024l0.095-0.008
			c0.197-0.042-0.22,0.056-0.139,0.035l0.092-0.024l1.466-0.386c0.485-0.13,1.013-0.246,1.356-0.423l1.164-0.473
			c0.388-0.151,0.775-0.291,1.208-0.528c0.841-0.433,1.69-0.826,2.527-1.286c6.702-3.797,12.994-8.804,19.061-13.978
			c6.072-5.202,11.936-10.701,17.672-16.34c5.737-5.64,11.353-11.418,16.885-17.28c5.529-5.865,10.982-11.809,16.352-17.829
			c5.368-6.015,10.689-12.102,15.875-18.246l1.836-2.175l1.655,2.278l22.321,30.708c7.434,10.242,14.914,20.447,22.414,30.637
			l11.236,15.296l11.418,15.076c3.693,5.104,7.914,9.846,11.961,14.706l12.235,14.511c4.097,4.815,8.181,9.648,12.371,14.359
			l3.171,3.498c1.071,1.147,2.158,2.276,3.255,3.386l1.683,1.61c0.558,0.543,1.162,0.999,1.74,1.504
			c0.571,0.527,1.209,0.888,1.812,1.335c0.299,0.236,0.628,0.373,0.946,0.548c0.323,0.154,0.63,0.37,0.966,0.478
			c1.302,0.563,2.736,0.707,4.263,0.773c1.695,0.121,2.704-0.102,4.159-0.746c2.739-1.23,5.344-3.028,7.866-4.862
			c5.044-3.723,9.818-7.867,14.515-12.078c9.37-8.466,18.374-17.357,27.248-26.367c8.861-9.025,17.587-18.192,26.152-27.498
			l0.313-0.34l0.312,0.333c8.212,8.771,16.565,17.418,25.061,25.919c2.137,2.112,4.263,4.236,6.428,6.319
			c2.146,2.104,4.339,4.158,6.523,6.221l3.323,3.045c1.11,1.013,2.254,1.986,3.38,2.981c1.115,1.009,2.31,1.92,3.462,2.885
			c1.15,0.968,2.403,1.802,3.601,2.71c-1.207-0.893-2.472-1.714-3.634-2.668c-1.163-0.952-2.371-1.85-3.498-2.846
			c-1.138-0.982-2.295-1.943-3.417-2.943l-3.36-3.008c-2.21-2.038-4.428-4.068-6.6-6.147c-2.191-2.059-4.342-4.159-6.505-6.247
			c-8.601-8.405-17.056-16.955-25.381-25.638l0.624-0.007c-8.466,9.419-17.087,18.691-25.852,27.833
			c-8.779,9.127-17.69,18.136-27.003,26.753c-4.674,4.289-9.42,8.512-14.517,12.369c-2.568,1.906-5.174,3.777-8.2,5.185
			c-0.789,0.338-1.517,0.649-2.498,0.843c-0.246,0.051-0.497,0.1-0.675,0.105l-0.296,0.025l-0.225,0.015l-0.151-0.001l-1.211-0.008
			c-1.622-0.047-3.393-0.195-5.026-0.875c-0.417-0.136-0.776-0.372-1.166-0.555c-0.378-0.201-0.782-0.377-1.112-0.627
			c-0.676-0.481-1.422-0.91-2.025-1.452c-0.621-0.526-1.286-1.023-1.869-1.577l-1.766-1.651c-1.14-1.126-2.261-2.265-3.363-3.417
			l-3.246-3.496c-4.277-4.696-8.419-9.484-12.58-14.259l-12.41-14.372c-4.108-4.817-8.366-9.488-12.163-14.6l-11.685-15.054
			l-11.422-15.171c-7.624-10.108-15.229-20.23-22.784-30.385l-22.688-30.453l3.491,0.102c-5.172,6.276-10.425,12.429-15.753,18.543
			c-5.324,6.112-10.734,12.151-16.229,18.119c-5.498,5.965-11.087,11.853-16.816,17.619c-5.729,5.766-11.603,11.407-17.749,16.801
			c-6.168,5.372-12.512,10.597-19.847,14.877c-0.927,0.525-1.907,0.999-2.859,1.498c-0.453,0.254-1.009,0.479-1.561,0.701
			l-1.649,0.66c-0.578,0.25-1.041,0.352-1.531,0.49l-1.462,0.404l-0.091,0.025c0.02-0.001-0.459,0.104-0.325,0.069l-0.281,0.041
			l-0.564,0.072c-0.372,0.034-0.733,0.027-1.101,0.033c-0.716-0.028-1.402-0.118-2.052-0.258c-2.582-0.593-4.62-1.737-6.498-2.939
			c-1.858-1.227-3.54-2.575-5.136-3.976c-6.318-5.652-11.547-11.996-16.609-18.431c-5.028-6.458-9.754-13.098-14.343-19.816
			c-9.161-13.447-17.765-27.214-26.134-41.106c-8.361-13.898-16.464-27.937-24.406-42.06c-7.94-14.125-15.718-28.336-23.368-42.614
			c-7.647-14.286-15.177-28.607-22.548-43.072L568.51,548.067z"/>
	</g>
</g>
<g id="cuerda">
	<path d="M82.841,665.979L282.688,942.53c0,0,52.795,105.415,56.067,122.553c3.161,16.553,5.198,45.121-5.314,63.792
		c-10.511,18.671,14.5-25.367,5.314-57.957s-57.74-124.041-57.74-124.041"/>
</g>
<g id="rapelista">
	<g>
		<path fill="#FFFFFF" d="M283.99,942.625l5.149,4.251l4.416,2.763v2.763h1.275l-1.493,2.245l3.831,3.494l1.913-1.063l1.7,3.613
			l1.275,2.338l2.976,2.763h1.7v1.913l3.826-2.125v-1.913l3.188-1.488l4.888-5.951l0.321-2.036l-1.543-0.255l-1.335-2.055
			l-2.543-1.348v-2.053c0,0-2.845-1.293-3.309-1.984c-0.464-0.691-0.325-2.127-0.304-3.873c0.03-2.55,1.488-7.651,4.251-9.564
			c2.763-1.913,7.226-3.188,10.202-2.763c2.976,0.425,6.589,4.251,7.439,5.101s1.913,4.038,1.913,4.038s2.763,0.85,5.101,1.913
			c2.338,1.063,6.376,4.381,8.077,7.61s0.425,5.354,0.425,5.354l-2.299,5.348l-3.227,8.042l-14.214,8.72l0.187,5.945l-5.314,4.676
			l-5.101,4.463l-3.188,1.063l-3.613,4.888l-7.014,4.463l3.756,11.97l-15.589,1.714l-23.274,21.307l-8.464,6.067l-3.188-1.313
			l-3.613-1.122c0,0-3.826,0.909-5.314-0.366c-1.488-1.275-6.801-4.398-6.482-5.054c0.319-0.656,10.096-0.26,10.096-0.26l2.55-1.7
			l1.417-2.114l4.109-1.5l2.338-3.613l13.815-13.603l4.676-7.226l6.589-4.676l4.038-2.55l5.951-2.125l1.7-1.063l-20.404-2.503
			l-5.396-7.425l-32.436,9.29l-5.814,7.179l-3.679,0.945c0,0-15.374-6.636-17.712-7.911c-2.338-1.275-3.755-2.078-3.755-2.078
			s6.73-1.96,9.281-1.11c2.55,0.85,5.314,0,5.314,0l1.21-1.765l1.553,1.553l0.425-2.338l0.213-2.763l6.801-4.038l5.101,0.213
			l11.265-2.976l9.777-3.613l4.251-1.488l5.526-1.488h2.976l2.869-0.006l6.057-0.419l8.542-1.387l2.483,0.639l3.6-0.763
			l-6.255-11.142l-3.694-2.225l-1.7-1.488l-2.976-1.275l-0.425-3.613l-0.638-3.826l1.488-2.125l0.213-2.55L283.99,942.625z"/>
		<path fill="#030104" d="M347.327,953.937l1.488,9.139c0,0,0.638,5.739-1.382,8.502c-2.019,2.763-2.019,1.7-2.869,3.826
			c-0.85,2.125-2.338,0.425-2.55,4.251c-0.213,3.826,0,4.888-1.7,6.164c-1.7,1.275-1.488,2.125-2.976,4.038
			c-1.488,1.913-4.463,3.188-4.676,4.676c-0.213,1.488,2.338-0.425,2.976,0c0.638,0.425,0.85,1.913,2.125,2.976
			c1.275,1.063,3.017,2.125,3.017,2.125h1.446c0,0,0-0.213,1.063,2.125s0.213,5.101,0.213,5.314c0,0.213-2.722,2.976-2.722,2.976
			l-2.592-1.063l-1.063-4.038l-1.488-2.976l-2.988-1.063l-1.9,0.213l-1.913,0.85l-4.251,5.739l-8.502,2.338
			c0,0-2.763,1.488-4.676,2.338c-1.913,0.85-2.976,1.7-5.101,1.488c-2.125-0.213-5.735,1.412-8.711,1.088
			c-2.76-0.301-4.042,0.444-4.042,0.444l-4.037,2.506c0,0-1.7,2.125-5.101,5.951c-3.401,3.826-11.265,9.139-12.752,10.202
			c-1.488,1.063,2.976-4.676,2.976-4.676s-2.095,0.425-3.279,2.338c-1.184,1.913,0.091,1.913-1.609,3.401
			c-1.7,1.488-2.125,2.976-2.976,3.188s-2.338,0-2.338,0s2.763,0,0,1.488s-2.55,2.125-4.038,2.976c-1.488,0.85-2.338,0-2.338,0
			s0.213-2.551,1.275-2.551s2.763,0.425,1.488-1.7s-2.763-3.188-2.763-3.188s3.241,1.541,3.826,1.488
			c0.584-0.053-1.435-1.86-1.275-2.338c0.159-0.478,2.285,1.169,2.976,1.063c0.691-0.106-0.85-2.125-0.85-2.125l2.125,2.125
			l-4.038-7.226c0,0,4.888,2.55,8.502,1.275c3.613-1.275,3.826-5.101,3.826-5.101s1.488,0,4.463-4.038
			c2.976-4.038,5.739-5.951,5.739-5.951s-0.956-8.342,0-9.139c0.956-0.797,6.589,2.338,6.589,2.338l9.458-10.84l-0.744-2.173
			l-10.321-1.266c0,0-8.701-0.865-10.083-1.237c-1.382-0.372-4.888-4.463-4.888-4.463s-14.559,5.526-17.641,5.526s-7.864,0-7.864,0
			l-2.338,2.125l-3.188,0.85l-2.55,2.314c0,0,0.354,1.547-0.283,1.901c-0.638,0.354-3.542,0.035-3.542,0.035l-1.22,0.593
			l-1.544-2.53l-3.826-6.353l5.526,6.353c0,0-2.922-5.502-2.976-7.415c-0.053-1.913,1.913-5.101,1.913-5.101l4.888,2.125
			c0,0,0.372-0.425,1.7-1.063c1.328-0.638,1.7,1.488,1.7,1.488h5.739c0,0,3.188-0.106,4.038-0.797
			c0.85-0.691,0.319-2.285,0.319-2.285l2.019-3.719c0,0-0.638,1.7-0.638,2.55s1.7-1.275,1.7-1.275s-1.01,1.807-1.063,2.55
			c-0.053,0.744,4.888-1.275,4.888-1.275l7.864-1.275l5.101,1.063c0,0,4.835,2.019,5.951,2.125s0.425-2.338,0.425-2.338l0.85,0.85
			c0,0-0.213-0.053,0.637,0.637c0.85,0.691,1.594,0.478,2.125,0c0.531-0.478-0.85-1.913-0.85-1.913s4.198,4.57,2.763,0.425
			c-1.435-4.145-1.7-2.657-1.488-2.976c0.213-0.319,6.637,2.125,6.637,2.125l3.99,2.338l7.651,1.7l7.014-2.55l2.869,2.869
			l0.531,0.531l4.038,1.488l-3.401-3.613c0,0,5.367,3.294,6.164,2.55s-5.048-7.492-3.401-7.226c1.647,0.266,7.811,3.029,8.714,2.55
			c0.903-0.478-0.266-2.816,0.213-3.613c0.478-0.797,2.232,0.903,2.976,0.213c0.744-0.691,0.425-3.613,0.425-3.613l4.463-4.251
			l1.913-3.401c0,0,11.902-8.927,12.327-10.627S347.327,953.937,347.327,953.937z"/>
		<path fill="#030104" d="M241.376,1035.128c0,0-0.956,1.488-0.744,2.125c0.213,0.638,2.161,3.601,2.161,3.601l1.771,2.303
			c0,0,1.807,2.704,4.463,2.385c2.657-0.319,5.101,0,5.951,0.531c0.85,0.531,2.869,0.85,3.401,0c0.531-0.85,2.019-3.294,2.019-3.294
			s-5.207-2.71-6.27-3.029c-1.063-0.319-3.401,0.691-4.251,0.478C249.027,1040.016,243.572,1034.774,241.376,1035.128z"/>
		<path fill="#030104" d="M235.744,999.917c0,0-3.401,5.526-3.897,5.668c-0.496,0.142-21.679-10.769-22.317-11.69
			s-0.071-1.7-0.071-1.7s19.306,9.564,21.502,9.617C233.158,1001.865,235.744,999.917,235.744,999.917z"/>
		<path fill="#030104" d="M291.004,960.837c0,0,1.19-8.158,2.677-8.016c1.488,0.142,1.786,0.813,1.857,1.309
			c0.071,0.496-1.311-0.909-2.019,0.791s-2.09,5.916-2.09,5.916l3.096-5.107l2.643,2.41l-0.95,2.461c0,0-0.638,1.963-0.23,2.682
			c0.968,1.706,6.918,8.613,6.918,8.613s0.106,2.338-1.417,2.55C299.966,974.66,291.004,960.837,291.004,960.837z"/>
		<path fill="#030104" d="M301.489,974.448l1.559-3.861l0.758,1.273l1.225,2.057h1.629l2.834,1.488l1.559,0.85l2.976-1.204
			l1.204-2.55l4.534-0.638l-3.684-2.905c0,0-0.638,0.425-1.063-0.779c-0.425-1.204-0.213-1.771-0.213-1.771
			s-0.638-0.142-1.842,1.913s-1.7,3.01-1.7,3.01l-1.984,0.462l-3.542,0.992l-1.629,1.134L301.489,974.448z"/>
		<path fill="#030104" d="M319.343,965.91c0,0,2.621-1.984,6.305-1.842c3.684,0.142,3.188-0.007,3.188-0.007l-2.834,3.833
			l-1.134-1.063l-0.768,0.425L319.343,965.91z"/>
		<path fill="#030104" d="M314.809,964.989c0,0,6.305-3.188,7.864-2.692c1.559,0.496,4.818,0.638,4.818,0.638h1.771l1.204-1.629
			l-2.55,0.283c0,0-0.85,0.496-1.275,0.708c-0.425,0.213-0.213-1.63-0.213-1.63h-4.888l-5.101,2.161L314.809,964.989z"/>
		<path fill="#201813" d="M332.52,957.763c0,0-1.134-1.134,0-2.409c1.134-1.275,4.251-3.472,4.251-3.472s-3.117,3.613-3.684,4.747
			S332.52,957.763,332.52,957.763z"/>
		<path fill="#201813" d="M338.755,950.535c0,0,5.597-0.781,6.73,0s1.417,1.773,1.629,2.198c0.213,0.425,0.213,1.204,0.213,1.204
			s0.142-2.752-0.921-3.749c-1.063-0.997-1.907-2.485-3.362-1.989s-1.456,0.496-1.456,0.496L338.755,950.535z"/>
		<path fill="#030104" d="M331.67,955.142l-0.567-4.607l-1.629-4.037l1.098,5.384l-3.011-5.03l3.33,7.085
			c0,0-2.055-1.771-3.613-2.055c-1.559-0.283-1.629,1.063-1.629,1.063s0.708,1.417,2.196,2.196c1.488,0.779,2.834,0.85,3.046,0.85
			c0.213,0,0.779,0,0.779,0V955.142z"/>
		<path fill="#030104" d="M317.501,941.681l-1.771,5.809l2.055,1.275l-1.559,0.425l-1.063,0.85l0.354,0.978l2.055-0.484
			l-1.098,1.631l1.311,1.346l4.463-4.322l1.853-1.984l-5.254,8.077l-2.409-2.125l-0.779-1.275l-2.125-1.348v-2.053l-2.976-1.984
			c0,0-1.134-2.692,0.779-4.818c1.913-2.125,7.226-6.447,9.706-6.872c2.48-0.425,6.518,0.213,7.616,0.638
			c1.098,0.425,0.658,0.245,1.098,0.425c0.874,0.357,2.585,0.893,3.046,1.771c0.443,0.843,0.571,1.358,0.571,1.358l0.067,0.271
			l-2.692,0.213l-1.891-1.559c0,0-1.014-0.921-2.431-1.204s-1.672-0.62-3.383-0.478c-1.711,0.142-1.913-0.159-3.277,1.541
			C318.415,939.471,317.501,941.681,317.501,941.681z"/>
		<path fill="#030104" d="M327.774,972.535c0,0,0.549-0.969,1.353-2.354c1.89-3.257,5.191-8.817,6.086-9.513
			c1.275-0.992,2.621-2.48,3.542-2.905c0.921-0.425-3.649,4.711-3.117,5.066c0.531,0.354,0.638,0.248,4.038-2.728
			s5.739-3.755,4.57-4.109c-1.169-0.354-2.657,0-2.657,0s1.778-2.48,2.961-2.586s2.243-0.195,2.74,0
			c0.498,0.195-1.592,5.668-1.592,5.668l-5.444,4.505l-6.955,5.449l-2.535,2.566l0.622,0.834L327.774,972.535z"/>
		<polyline fill="#030104" points="326.003,967.54 329.127,970.18 327.774,972.535 328.376,970.445 326.003,967.894 		"/>
		<path fill="#030104" stroke="#030104" stroke-miterlimit="10" d="M286.116,945.436c0,0-2.667-3.006-3.052-2.904
			s-0.189,1.416-0.189,1.416l-0.372,1.753l-0.913,1.145l4.526-0.348l1.063,0.85l-3.836,0.696l-0.309,0.056h4.145l0.85,0.949
			l-5.314,0.744l0.159,1.027l5.154-1.027v1.488l-5.314,2.01l7.581,5.818v-3.117l-2.267-2.701l0.638-0.947l1.063,0.947l1.063-2.046
			l-2.497,0.195"/>
		<polygon fill="#030104" points="314.029,975.05 314.809,976.254 316.651,973.845 316.651,974.2 315.021,976.431 315.517,977.458 
			317.713,975.121 317.855,975.466 315.659,977.813 316.474,979.159 318.245,976.431 318.457,976.715 317.182,979.442 
			319.343,977.458 322.389,977.246 325.329,975.369 326.003,974.483 324.373,973.349 323.948,972.393 325.719,970.338 
			326.321,970.037 325.577,970.87 325.011,972.535 325.365,973.314 326.321,974.093 326.853,974.129 327.565,973.562 
			331.387,972.428 326.18,975.723 324.101,977.033 321.964,978.309 320.902,978.628 320.122,978.84 319.981,979.655 
			321.716,979.336 322.354,979.265 322.637,979.655 321.858,980.328 319.343,980.895 316.899,980.434 314.029,975.227 		"/>
	</g>
</g>
<g id="Rappel">
	<g>
		<path stroke="#000000" stroke-width="2" stroke-miterlimit="10" d="M646.862,1008.637l110.772,263.597H746.53l-110.772-263.597
			H520.507v251.919v11.678h-10.721V871h9.572h125.207c25.271,0,44.541,6.4,57.817,19.186c13.018,12.239,19.528,28.922,19.528,50.05
			c0,25.859-7.79,44.354-23.357,55.472c-9.189,8.622-25.529,12.93-49.011,12.93H646.862z M520.507,997.793h123.675
			c20.162,0,36.243-4.027,48.245-12.095c12.504-9.176,18.762-24.328,18.762-45.462c0-18.352-5.81-32.597-17.422-42.751
			c-11.618-10.147-28.143-15.224-49.585-15.224H520.507V997.793z"/>
		<path stroke="#000000" stroke-width="2" stroke-miterlimit="10" d="M992.613,1272.234v-75.992
			c-5.618,14.181-13.784,27.11-24.505,38.789c-23.489,25.586-51.948,37.204-85.386,37.204c-33.187,0-61.521-12.786-85.003-38.372
			c-23.489-25.579-35.226-56.443-35.226-92.592c0-36.143,11.738-67.007,35.226-92.592c23.482-25.579,51.816-38.372,85.003-38.372
			c33.437,0,61.897,12.793,85.386,38.372c10.464,11.678,18.63,24.751,24.505,39.206v-41.374h10.338v93.926v0.834v0.834v130.13
			H992.613z M992.613,1142.104v-1.251c-0.258-33.086-11.104-61.239-32.546-84.459c-21.442-23.213-47.228-34.826-77.345-34.826
			c-30.123,0-55.903,11.678-77.345,35.035c-21.442,23.357-32.163,51.581-32.163,84.668c0,32.813,10.721,60.894,32.163,84.251
			c21.442,23.357,47.221,35.035,77.345,35.035c30.374,0,56.22-10.367,77.536-33.45
			C981.568,1204.03,992.355,1174.917,992.613,1142.104z"/>
		<path stroke="#000000" stroke-width="2" stroke-miterlimit="10" d="M1263.771,1048.678c23.224,25.305,34.844,56.169,34.844,92.592
			c0,36.43-11.619,64.958-34.844,90.257c-23.489,25.586-51.948,40.707-85.386,40.707c-33.187,0-61.521-10.45-85.003-36.036
			c-10.721-11.678-18.894-24.608-24.505-38.789v257.008h-10.721V1046.51h10.721v41.374c5.611-14.454,13.784-27.527,24.505-39.206
			c23.482-25.579,51.816-38.372,85.003-38.372C1211.822,1010.306,1240.282,1023.099,1263.771,1048.678z M1178.385,1260.556
			c30.374,0,56.286-14.014,77.728-37.371c21.442-23.357,32.163-49.102,32.163-81.915c0-32.806-10.787-60.959-32.355-84.459
			c-21.574-23.493-47.42-35.243-77.536-35.243c-30.123,0-55.903,11.678-77.345,35.035c-21.442,23.357-32.163,51.581-32.163,84.668
			c0,32.813,10.721,63.23,32.163,86.586C1122.482,1251.213,1148.262,1260.556,1178.385,1260.556z"/>
		<path stroke="#000000" stroke-width="2" stroke-miterlimit="10" d="M1565.662,1048.678c23.224,25.305,34.844,56.169,34.844,92.592
			c0,36.43-11.619,67.294-34.844,92.592c-23.489,25.586-51.948,38.372-85.386,38.372c-33.187,0-61.521-12.786-85.003-38.372
			c-10.721-11.678-18.894-24.608-24.505-38.789v259.344h-10.721V1046.51h10.721v41.374c5.611-14.454,13.784-27.527,24.505-39.206
			c23.482-25.579,51.816-38.372,85.003-38.372C1513.714,1010.306,1542.173,1023.099,1565.662,1048.678z M1480.276,1260.556
			c30.374,0,56.286-11.678,77.728-35.035c21.442-23.357,32.163-51.438,32.163-84.251c0-32.806-10.787-60.959-32.355-84.459
			c-21.574-23.493-47.42-35.243-77.536-35.243c-30.123,0-55.903,11.678-77.345,35.035c-21.442,23.357-32.163,51.581-32.163,84.668
			c0,32.813,10.721,60.894,32.163,84.251C1424.374,1248.878,1450.153,1260.556,1480.276,1260.556z"/>
		<path stroke="#000000" stroke-width="2" stroke-miterlimit="10" d="M1880.223,1132.094h-227.44
			c-0.258,1.949-0.383,5.005-0.383,9.176c0,32.813,10.721,60.894,32.163,84.251c21.442,23.357,47.221,35.035,77.345,35.035
			c19.911,0,38.798-5.631,56.668-16.892c17.864-11.261,31.523-26.485,40.97-45.671h11.104
			c-10.721,21.415-26.169,39.141-46.33,53.178c-20.168,14.044-40.97,21.063-62.412,21.063c-33.187,0-61.521-12.786-85.003-38.372
			c-23.489-25.579-35.226-56.443-35.226-92.592c0-36.143,11.738-67.007,35.226-92.592c23.482-25.579,51.816-38.372,85.003-38.372
			c31.648,0,58.966,11.678,81.94,35.035c22.974,23.083,35.609,51.999,37.907,86.753H1880.223z M1761.908,1021.568
			c-26.803,0-50.351,9.456-70.644,28.362c-20.293,18.912-32.738,42.406-37.332,70.487h216.336
			c-4.595-28.362-17.171-51.927-37.715-70.695C1812.002,1030.952,1788.454,1021.568,1761.908,1021.568z"/>
		<path stroke="#000000" stroke-width="2" stroke-miterlimit="10" d="M1942.848,1260.556v11.678h-10.721V869.832h9.572h1.149
			v197.198V1260.556z"/>
	</g>
</g>
<g id="Capa_1_copia" display="none">
	<g display="inline">
		<path d="M418.956,1207.854h-14.986l-204.048-516.11h14.986l112.976,286.309l6.34,15.069l77.238,195.268l196.555-545.685
			L418.956,1207.854z"/>
	</g>
	<polyline display="inline" points="615,642.704 655,763 664,763 620,642.704 	"/>
</g>
<g id="Capa_2_copia" display="none">
	<g display="inline">
		<path d="M696.596,982.963l94.927,224.891h-9.516l-94.927-224.891h-98.766v214.883v10.008h-9.188v-342.84h8.203h107.297
			c21.656,0,38.17,5.484,49.547,16.441c11.156,10.488,16.734,24.785,16.734,42.891c0,22.16-6.675,38.01-20.016,47.537
			c-7.875,7.389-21.877,11.08-42,11.08H696.596z M588.315,973.67h105.984c17.278,0,31.059-3.451,41.344-10.365
			c10.715-7.863,16.078-20.848,16.078-38.959c0-15.727-4.979-27.935-14.93-36.636c-9.957-8.695-24.117-13.046-42.492-13.046H588.315
			V973.67z"/>
		<path d="M992.89,1207.854v-65.122c-4.814,12.152-11.813,23.232-21,33.24c-20.129,21.926-44.518,31.882-73.172,31.882
			c-28.439,0-52.721-10.957-72.844-32.883c-20.129-21.92-30.188-48.369-30.188-79.348c0-30.973,10.059-57.422,30.188-79.348
			c20.123-21.92,44.404-32.883,72.844-32.883c28.654,0,53.043,10.963,73.172,32.883c8.967,10.008,15.965,21.211,21,33.598v-35.456
			h8.859v80.491v0.715v0.715v111.516H992.89z M992.89,1096.338v-1.072c-0.221-28.354-9.516-52.479-27.891-72.378
			c-18.375-19.893-40.473-29.845-66.281-29.845c-25.814,0-47.906,10.008-66.281,30.023s-27.563,44.203-27.563,72.557
			c0,28.119,9.188,52.184,27.563,72.199s40.467,30.023,66.281,30.023c26.029,0,48.178-8.884,66.445-28.665
			C983.425,1149.405,992.669,1124.457,992.89,1096.338z"/>
		<path d="M1225.261,1016.275c19.902,21.686,29.859,48.135,29.859,79.348c0,31.219-9.957,55.666-29.859,77.346
			c-20.129,21.926-44.518,34.884-73.172,34.884c-28.439,0-52.721-8.955-72.844-30.881c-9.188-10.008-16.191-21.088-21-33.24v220.245
			h-9.188v-349.56h9.188v35.456c4.809-12.387,11.813-23.59,21-33.598c20.123-21.92,44.404-32.883,72.844-32.883
			C1180.743,983.393,1205.132,994.355,1225.261,1016.275z M1152.089,1197.846c26.029,0,48.234-12.009,66.609-32.025
			s27.563-42.078,27.563-70.198c0-28.113-9.244-52.239-27.727-72.378c-18.488-20.133-40.637-30.202-66.445-30.202
			c-25.814,0-47.906,10.008-66.281,30.023s-27.563,44.203-27.563,72.557c0,28.119,9.188,54.185,27.563,74.201
			S1126.274,1197.846,1152.089,1197.846z"/>
		<path d="M1483.969,1016.275c19.902,21.686,29.859,48.135,29.859,79.348c0,31.219-9.957,57.668-29.859,79.348
			c-20.129,21.926-44.518,32.883-73.172,32.883c-28.439,0-52.721-10.957-72.844-32.883c-9.188-10.008-16.191-21.088-21-33.24
			v222.246h-9.188v-349.56h9.188v35.456c4.809-12.387,11.813-23.59,21-33.598c20.123-21.92,44.404-32.883,72.844-32.883
			C1439.451,983.393,1463.84,994.355,1483.969,1016.275z M1410.797,1197.846c26.029,0,48.234-10.008,66.609-30.023
			s27.563-44.08,27.563-72.199c0-28.113-9.244-52.239-27.727-72.378c-18.488-20.133-40.637-30.202-66.445-30.202
			c-25.814,0-47.906,10.008-66.281,30.023s-27.563,44.203-27.563,72.557c0,28.119,9.188,52.184,27.563,72.199
			S1384.982,1197.846,1410.797,1197.846z"/>
		<path d="M1753.534,1087.76h-194.906c-0.221,1.67-0.328,4.289-0.328,7.863c0,28.119,9.188,52.184,27.563,72.199
			s40.467,30.023,66.281,30.023c17.063,0,33.248-4.825,48.563-14.476c15.309-9.65,27.014-22.696,35.109-39.138h9.516
			c-9.188,18.352-22.426,33.542-39.703,45.571c-17.283,12.035-35.109,18.05-53.484,18.05c-28.439,0-52.721-10.957-72.844-32.883
			c-20.129-21.92-30.188-48.369-30.188-79.348c0-30.973,10.059-57.422,30.188-79.348c20.123-21.92,44.404-32.883,72.844-32.883
			c27.121,0,50.531,10.008,70.219,30.023c19.688,19.781,30.516,44.561,32.484,74.344H1753.534z M1652.144,993.043
			c-22.969,0-43.148,8.104-60.539,24.305c-17.391,16.207-28.055,36.34-31.992,60.404h185.391
			c-3.938-24.305-14.715-44.499-32.32-60.583C1695.071,1001.085,1674.892,993.043,1652.144,993.043z"/>
		<path d="M1807.201,1197.846v10.008h-9.188V842.996h8.203h0.984v189.006V1197.846z"/>
	</g>
</g>
</svg>
