<?xml version="1.0" encoding="utf-8"?>
<!-- Generator: Adobe Illustrator 17.0.0, SVG Export Plug-In . SVG Version: 6.00 Build 0)  -->
<!DOCTYPE svg PUBLIC "-//W3C//DTD SVG 1.0//EN" "http://www.w3.org/TR/2001/REC-SVG-20010904/DTD/svg10.dtd">
<svg version="1.0" id="Capa_1" xmlns="http://www.w3.org/2000/svg" xmlns:xlink="http://www.w3.org/1999/xlink" x="0px" y="0px"
	 width="2000px" height="2000px" viewBox="0 0 2000 2000" enable-background="new 0 0 2000 2000" xml:space="preserve">
<g>
	<path d="M442.315,706.312L339.383,1261.18l-1.535,6.146l-0.77,3.841v0.768h-29.958L182.68,706.312h-41.482v-26.56h91.411v26.56
		h-23.815l112.152,523.374l95.251-523.374h-25.347v-26.56h91.41v26.56H442.315z"/>
	<path d="M608.063,1271.934l-53.685-0.185l0.078-25.163V706.101h-50.7v-26.349h225.071c64.525,3.072,115.99,57.844,115.99,123.137
		c0,58.38-40.71,106.774-95.251,119.833l121.369,323.864h30.516v25.349h-52.379l-8.863-25.349l-119.063-321.56H579.802v321.56
		h28.261V1271.934z M728.058,899.676c50.697-3.072,91.41-45.321,91.41-96.788c0-53.77-43.786-96.787-97.556-96.787h-142.11v193.575
		H728.058z"/>
	<path d="M1024.561,1271.934c-36.872,0-67.598-28.422-70.671-65.294v-3.072v-358.73h-31.494v-26.118h57.611v66.075h72.207v26.116
		h-72.207v290.351c0,24.581,19.974,44.552,44.554,44.552c19.971,0,36.872-13.059,42.248-31.494h26.885
		C1087.551,1247.353,1059.128,1271.934,1024.561,1271.934z"/>
	<path d="M1158.214,1245.817v-227.374h26.118v227.374h28.423v26.118l-54.541,0.066V1245.817z M1171.274,910.901
		c-6.914,0-13.06-6.145-13.06-13.059v-1.537c0-6.913,6.146-13.059,13.06-13.059c7.682,0,13.057,6.146,13.057,13.059v1.537
		C1184.332,904.756,1178.956,910.901,1171.274,910.901z"/>
	<path d="M1371.753,1271.934c-70.671,0-128.282-56.844-128.282-127.513c0-70.671,57.611-128.282,128.282-128.282
		c23.812,0,46.859,6.145,67.598,19.204c0,0,1.535,1.537,3.073,3.841c1.535,2.304,3.073,6.145,3.073,6.145v31.495h-26.885v-23.813
		l-7.682-3.072c-12.292-5.377-25.35-7.682-39.177-7.682c-56.076,0-102.165,45.321-102.165,102.165
		c0,56.075,46.089,101.396,102.165,101.396c18.436,0,36.104-4.608,51.467-13.826l16.131,20.74
		C1419.38,1265.789,1396.335,1271.934,1371.753,1271.934z"/>
	<path d="M1602.955,1271.934c-70.671,0-128.282-57.611-128.282-128.282c0-70.67,57.611-128.282,128.282-128.282
		c13.057,0,26.885,2.305,39.175,6.914l17.668,5.377v-9.218h26.118v226.606h31.494v26.118h-57.611v-10.755l-17.668,5.377
		C1629.841,1269.63,1616.013,1271.934,1602.955,1271.934z M1602.955,1041.487c-56.076,0-102.165,46.09-102.165,102.165
		c0,56.076,46.089,102.165,102.165,102.165c17.668,0,34.567-4.608,49.93-13.059l6.914-3.841v-169.763l-6.914-3.841
		C1637.522,1046.097,1620.624,1041.487,1602.955,1041.487z"/>
	<path d="M1795.722,1271.934l0.031-454.749h57.611v26.118h-31.494v402.514h30.422v26.118H1795.722z"/>
</g>
</svg>
